<svg width="24" height="26" viewBox="0 0 24 26" fill="none" xmlns="http://www.w3.org/2000/svg">
<path d="M15.1541 6.73518C15.1541 8.59504 13.6463 10.1028 11.7865 10.1028C9.92663 10.1028 8.41891 8.59504 8.41891 6.73518C8.41891 4.87533 9.92663 3.36761 11.7865 3.36761C13.6463 3.36761 15.1541 4.87533 15.1541 6.73518Z" stroke="#898989" stroke-width="2.02054"/>
<path d="M8.41887 13.4703L4.8671 15.8382C3.93025 16.4628 3.36752 17.5142 3.36752 18.6402V20.3177C3.36752 21.1857 4.07112 21.8893 4.93905 21.8893H11.7864" stroke="#898989" stroke-width="2.02054" stroke-linecap="round" stroke-linejoin="round"/>
<path d="M19.3635 6.73523V14.3123M19.3635 14.3123V18.0753C19.3635 18.8244 18.83 19.4777 18.0812 19.4542C16.843 19.4152 15.154 18.971 15.154 16.8379C15.154 13.4704 19.3635 14.3123 19.3635 14.3123Z" stroke="#898989" stroke-width="1.68378" stroke-linecap="round" stroke-linejoin="round"/>
</svg>
