<svg width="23" height="20" viewBox="0 0 23 20" fill="none" xmlns="http://www.w3.org/2000/svg">
<path d="M13.1335 2.36517L11.2696 4.17112L9.40581 2.36518C7.45145 0.471504 4.3163 0.57606 2.49244 2.59574C0.722678 4.55551 0.479028 7.49092 2.08159 9.58963C2.27853 9.84753 2.47216 10.0945 2.65644 10.3206C3.82288 11.7515 6.36789 14.2505 7.64303 15.5916C8.58512 16.5824 9.43195 17.4087 10.0699 18.0106C10.7436 18.6462 11.7836 18.6323 12.4586 17.9981C13.6349 16.8927 15.4389 15.171 16.7096 13.8346C17.9847 12.4935 18.7164 11.7515 19.8828 10.3206C20.0671 10.0945 20.2608 9.84753 20.4577 9.58963C22.0603 7.49092 21.8166 4.55551 20.0468 2.59574C18.223 0.57606 15.0878 0.471502 13.1335 2.36517Z" fill="#898989" stroke="#898989" stroke-width="2.02054" stroke-linecap="round" stroke-linejoin="round"/>
</svg>
