<svg width="24" height="24" viewBox="0 0 24 24" fill="none" xmlns="http://www.w3.org/2000/svg">
<g clip-path="url(#clip0_60_45)">
<circle cx="11.7865" cy="11.7866" r="1.96441" fill="#898989"/>
<path d="M15.1863 7.30011C16.4399 8.29991 17.2433 9.84043 17.2433 11.5686C17.2433 13.2967 16.4399 14.8372 15.1863 15.837M8.38685 15.837C7.13322 14.8372 6.32986 13.2967 6.32986 11.5686C6.32986 9.92693 7.05481 8.4546 8.20203 7.45426" stroke="#898989" stroke-width="1.96441" stroke-linecap="round" stroke-linejoin="round"/>
<path d="M17.906 3.92889C20.1626 5.71827 21.6086 8.47537 21.6086 11.5683C21.6086 14.6612 20.1626 17.4183 17.906 19.2077M5.66702 19.2077C3.41048 17.4183 1.96445 14.6612 1.96445 11.5683C1.96445 8.63018 3.26935 5.99512 5.33434 4.20479" stroke="#898989" stroke-width="1.96441" stroke-linecap="round" stroke-linejoin="round"/>
</g>
<defs>
<clipPath id="clip0_60_45">
<rect width="23.573" height="23.573" fill="white"/>
</clipPath>
</defs>
</svg>
