<svg width="20" height="19" viewBox="0 0 20 19" fill="none" xmlns="http://www.w3.org/2000/svg">
<path d="M18.8386 11.0387V2.12452C18.8386 1.50913 18.3397 1.01025 17.7243 1.01025H7.6959C7.0805 1.01025 6.58163 1.50913 6.58163 2.12452V11.0387M18.8386 11.0387V16.0191C18.8386 17.0106 18.1325 17.8754 17.1415 17.8442C15.5026 17.7925 13.2672 17.2047 13.2672 14.3815C13.2672 9.9244 18.8386 11.0387 18.8386 11.0387ZM6.58163 11.0387V16.0191C6.58163 17.0106 5.87552 17.8754 4.88453 17.8442C3.24566 17.7925 1.01028 17.2047 1.01028 14.3815C1.01028 9.9244 6.58163 11.0387 6.58163 11.0387Z" stroke="#898989" stroke-width="2.02054" stroke-linecap="round" stroke-linejoin="round"/>
</svg>
