<svg width="40" height="40" viewBox="0 0 40 40" fill="none" xmlns="http://www.w3.org/2000/svg">
<g clip-path="url(#clip0_6_472)">
<path d="M7.52808 26.1329C2.47414 23.6058 2.47406 16.3933 7.52808 13.8663L22.3464 6.45811C23.1062 6.07845 23.9995 6.63028 23.9998 7.4796L23.9998 32.5196C23.9998 33.3692 23.1053 33.922 22.3455 33.5421L7.52808 26.1329Z" stroke="#F2F2F7" stroke-width="3.42857"/>
<path d="M31.4286 28.571C32.7671 28.2059 34.0048 27.396 34.991 26.2159C36.3688 24.5672 37.1429 22.3311 37.1429 19.9996C37.1429 17.668 36.3688 15.4319 34.991 13.7832C34.0048 12.6032 32.7671 11.7932 31.4286 11.4281" stroke="#F2F2F7" stroke-width="2.85714" stroke-linecap="round"/>
<path d="M30.0001 19.1321C30.0001 18.8222 30.2606 18.5612 30.5468 18.6798C30.7201 18.7516 30.8776 18.8568 31.0103 18.9895C31.1429 19.1221 31.2481 19.2796 31.3199 19.4529C31.3917 19.6263 31.4287 19.812 31.4287 19.9996C31.4287 20.1872 31.3917 20.373 31.3199 20.5463C31.2481 20.7196 31.1429 20.8771 31.0103 21.0098C30.8776 21.1424 30.7201 21.2477 30.5468 21.3195C30.2606 21.438 30.0001 21.177 30.0001 20.8672L30.0001 19.9996L30.0001 19.1321Z" fill="#F2F2F7" stroke="#F2F2F7" stroke-width="1.42857"/>
</g>
<defs>
<clipPath id="clip0_6_472">
<rect width="40" height="40" fill="white"/>
</clipPath>
</defs>
</svg>
