<svg width="170" height="170" viewBox="0 0 170 170" fill="none" xmlns="http://www.w3.org/2000/svg">
<g clip-path="url(#clip0_83_199)">
<rect x="-5" y="-4.6001" width="180" height="180" fill="#0C391C"/>
<path d="M92.1491 64.8653L86.08 70.746L80.0108 64.8653C73.6468 58.699 63.4379 59.0394 57.4989 65.6161C51.736 71.9977 50.9426 81.5562 56.161 88.3902C56.8023 89.23 57.4328 90.0343 58.0329 90.7704C61.8312 95.43 70.1184 103.567 74.2707 107.934C77.3384 111.161 80.0959 113.851 82.1733 115.811C84.3671 117.881 87.7535 117.836 89.9515 115.771C93.7821 112.171 99.6561 106.565 103.794 102.213C107.946 97.8461 110.329 95.43 114.127 90.7704C114.727 90.0343 115.358 89.23 115.999 88.3902C121.217 81.5562 120.424 71.9977 114.661 65.6161C108.722 59.0394 98.5131 58.699 92.1491 64.8653Z" stroke="#1ED760" stroke-width="8.5" stroke-linecap="round" stroke-linejoin="round"/>
</g>
<defs>
<clipPath id="clip0_83_199">
<rect width="170" height="170" rx="7.24982" fill="white"/>
</clipPath>
</defs>
</svg>
